<svg width="691" height="537" viewBox="0 0 691 537" fill="none" xmlns="http://www.w3.org/2000/svg">
<path d="M163.838 209.311H157.586C156.795 206.842 155.798 204.444 154.606 202.142L159.034 197.714C159.786 196.962 160.382 196.069 160.789 195.087C161.196 194.104 161.406 193.051 161.406 191.988C161.406 190.924 161.196 189.871 160.789 188.889C160.382 187.906 159.786 187.013 159.034 186.261L150.446 177.673C149.694 176.921 148.801 176.325 147.819 175.918C146.836 175.511 145.783 175.301 144.719 175.301C143.656 175.301 142.603 175.511 141.62 175.918C140.638 176.325 139.745 176.921 138.993 177.673L134.565 182.101C132.263 180.909 129.865 179.912 127.397 179.121V172.869C127.397 170.721 126.543 168.662 125.025 167.143C123.506 165.624 121.446 164.771 119.299 164.771H107.151C105.004 164.771 102.944 165.624 101.425 167.143C99.9064 168.662 99.0532 170.721 99.0532 172.869V179.121C96.5845 179.912 94.1865 180.909 91.8844 182.101L87.4568 177.673C86.7048 176.921 85.812 176.325 84.8295 175.918C83.847 175.511 82.7939 175.301 81.7304 175.301C80.6669 175.301 79.6138 175.511 78.6313 175.918C77.6487 176.325 76.756 176.921 76.004 177.673L67.416 186.261C66.664 187.013 66.0674 187.906 65.6604 188.889C65.2534 189.871 65.0439 190.924 65.0439 191.988C65.0439 193.051 65.2534 194.104 65.6604 195.087C66.0674 196.069 66.664 196.962 67.416 197.714L71.8436 202.142C70.6516 204.444 69.6548 206.842 68.8635 209.311H62.6118C60.464 209.311 58.4042 210.164 56.8856 211.682C55.3669 213.201 54.5137 215.261 54.5137 217.409V229.556C54.5137 231.704 55.3669 233.763 56.8856 235.282C58.4042 236.801 60.464 237.654 62.6118 237.654H68.8635C69.6548 240.123 70.6516 242.521 71.8436 244.823L67.416 249.25C66.664 250.002 66.0674 250.895 65.6604 251.878C65.2534 252.86 65.0439 253.913 65.0439 254.977C65.0439 256.04 65.2534 257.093 65.6604 258.076C66.0674 259.058 66.664 259.951 67.416 260.703L76.004 269.291C76.756 270.043 77.6487 270.64 78.6313 271.047C79.6138 271.454 80.6669 271.663 81.7304 271.663C82.7939 271.663 83.847 271.454 84.8295 271.047C85.812 270.64 86.7048 270.043 87.4568 269.291L91.8844 264.864C94.1865 266.056 96.5845 267.052 99.0532 267.844V274.095C99.0532 276.243 99.9064 278.303 101.425 279.822C102.944 281.34 105.004 282.194 107.151 282.194H119.299C121.446 282.194 123.506 281.34 125.025 279.822C126.543 278.303 127.397 276.243 127.397 274.095V267.844C129.865 267.052 132.263 266.056 134.565 264.864L138.993 269.291C139.745 270.043 140.638 270.64 141.62 271.047C142.603 271.454 143.656 271.663 144.719 271.663C145.783 271.663 146.836 271.454 147.819 271.047C148.801 270.64 149.694 270.043 150.446 269.291L159.034 260.703C159.786 259.951 160.382 259.058 160.789 258.076C161.196 257.093 161.406 256.04 161.406 254.977C161.406 253.913 161.196 252.86 160.789 251.878C160.382 250.895 159.786 250.002 159.034 249.25L154.606 244.823C155.798 242.521 156.795 240.123 157.586 237.654H163.838C165.986 237.654 168.046 236.801 169.564 235.282C171.083 233.763 171.936 231.704 171.936 229.556V217.409C171.936 215.261 171.083 213.201 169.564 211.682C168.046 210.164 165.986 209.311 163.838 209.311ZM113.225 247.777C108.42 247.777 103.723 246.352 99.7277 243.682C95.7326 241.013 92.6187 237.218 90.7799 232.779C88.9411 228.34 88.46 223.455 89.3974 218.743C90.3348 214.03 92.6486 209.701 96.0463 206.304C99.4439 202.906 103.773 200.592 108.485 199.655C113.198 198.717 118.083 199.198 122.522 201.037C126.961 202.876 130.755 205.99 133.425 209.985C136.094 213.98 137.519 218.677 137.519 223.482C137.519 229.926 134.96 236.105 130.404 240.661C125.848 245.217 119.668 247.777 113.225 247.777Z" fill="#EBF1FF"/>
<path d="M233 506.561C239.39 511.277 257.702 521.417 279.828 524.247C307.484 527.784 336.712 526.521 342.369 521.215C348.026 515.91 343.626 508.077 335.769 506.561C327.912 505.045 311.256 502.519 313.141 495.697C315.027 488.875 322.255 488.622 332.312 490.138C342.369 491.654 391.711 488.37 406.482 477" stroke="#102241" stroke-width="3.78782"/>
<path d="M536.329 103.029C529.359 103.021 522.635 100.493 517.443 95.928C512.25 91.3632 508.951 85.081 508.176 78.2805C507.401 71.48 509.204 64.6373 513.24 59.0586C517.277 53.48 523.265 49.5559 530.061 48.0353C530.242 47.998 530.414 47.9258 530.566 47.8227C530.719 47.7197 530.849 47.5879 530.949 47.4351C531.05 47.2823 531.118 47.1114 531.15 46.9324C531.183 46.7534 531.179 46.5699 531.138 46.3925C530.671 44.1491 530.547 41.8499 530.77 39.5705C531.112 36.1132 532.275 32.7826 534.164 29.8457C536.053 26.9087 538.617 24.4471 541.65 22.6579C544.683 20.8687 548.1 19.8018 551.629 19.5426C555.157 19.2833 558.699 19.839 561.969 21.1651C562.295 21.2947 562.658 21.301 562.988 21.1826C563.318 21.0643 563.592 20.8298 563.756 20.5247C567.787 13.1786 574.11 7.29372 581.797 3.73304C589.484 0.172366 598.131 -0.876826 606.47 0.739307C614.809 2.35544 622.401 6.55187 628.133 12.7133C633.865 18.8747 637.436 26.677 638.322 34.9761C638.356 35.3114 638.513 35.6231 638.763 35.8535C639.013 36.0839 639.34 36.2173 639.683 36.2292C648.092 36.5513 656.081 39.9202 662.108 45.6855C668.135 51.4508 671.773 59.2038 672.32 67.4478C672.866 75.6918 670.282 83.8422 665.067 90.3258C659.852 96.8093 652.375 101.166 644.079 102.555L536.329 103.029Z" fill="#EBF1FF"/>
<g clip-path="url(#clip0_4407_672)">
<rect x="121" y="52.8696" width="483.244" height="424.303" rx="8.2786" transform="rotate(-0.103089 121 52.8696)" fill="white"/>
<path d="M121.006 56.4753C121.002 54.4839 122.613 52.8667 124.605 52.8631L693.641 51.8393C695.633 51.8357 697.25 53.4471 697.253 55.4384L697.331 98.879L121.084 99.9158L121.006 56.4753Z" fill="#F7F7F7"/>
<circle cx="147.607" cy="76.3443" r="5.93267" transform="rotate(-0.103089 147.607 76.3443)" fill="#F77166"/>
<circle cx="167.725" cy="76.3082" r="5.93267" transform="rotate(-0.103089 167.725 76.3082)" fill="#FFC848"/>
<circle cx="187.843" cy="76.2721" r="5.93267" transform="rotate(-0.103089 187.843 76.2721)" fill="#42D24B"/>
<g clip-path="url(#clip1_4407_672)">
<rect x="152" y="117" width="423" height="294" rx="8" fill="#F5F7FB"/>
<g clip-path="url(#clip2_4407_672)">
<path d="M471.832 242.945C480.022 235.161 480.326 222.241 472.512 214.089C464.698 205.93 451.728 205.628 443.544 213.412L388 266H447.484L471.832 242.945Z" fill="#FF9D7C"/>
<path d="M481.669 241.371C491.516 232.393 492.185 217.161 483.172 207.351C474.159 197.541 458.868 196.875 449.02 205.853L402.705 248.104L419.157 266H454.673L481.669 241.377V241.371Z" fill="#E6435B"/>
<path d="M521.021 236.317C519.965 214.573 500.386 197.447 476.59 197.447C453.253 197.447 433.884 213.945 432.226 235.238L429.833 265.994H522.463L521.021 236.317Z" fill="#E6435B"/>
<path d="M517.385 223.447C511.174 214.023 498.469 211.402 489.008 217.59C479.547 223.777 476.917 236.433 483.128 245.858L496.457 265.994H545.546L517.38 223.447H517.385Z" fill="#FF9D7C"/>
<path d="M513.759 214.865C506.205 203.899 491.157 201.114 480.149 208.639C469.141 216.164 466.344 231.154 473.899 242.12L490.356 266H548.994L513.754 214.865H513.759Z" fill="#E6435B"/>
<path d="M496.07 264.403L493.893 265.945L493.926 266H497.081L496.07 264.403Z" fill="#29190F"/>
<path d="M431.712 241.305H429.524L427.12 266H429.375L431.712 241.305Z" fill="#29190F"/>
<path d="M480.443 179.088C489.878 169.689 489.878 154.45 480.443 145.051C471.007 135.652 455.71 135.652 446.274 145.051C436.839 154.45 436.839 169.689 446.274 179.088C455.71 188.487 471.007 188.487 480.443 179.088Z" fill="#29190F"/>
<path d="M477.702 182.362C485.872 172.921 484.812 158.669 475.333 150.531C465.855 142.392 451.549 143.449 443.379 152.891C435.209 162.332 436.27 176.584 445.748 184.722C455.226 192.861 469.533 191.804 477.702 182.362Z" fill="#FF9D7C"/>
<path d="M459.791 198.994L424.982 200.53C424.982 200.53 421.898 179.628 439.698 173.803C457.498 167.974 459.791 198.994 459.791 198.994Z" fill="#29190F"/>
<path d="M468.086 191.276L454.375 196.098C444.075 198.669 434.404 190.125 435.736 179.633L438.355 163.008L469.788 160.559L468.086 191.276Z" fill="#FF9D7C"/>
<path d="M455.541 166.559C454.917 166.014 454.221 165.64 453.425 165.414C452.541 165.166 452.231 166.542 453.11 166.79C453.674 166.95 454.149 167.214 454.585 167.599C455.271 168.199 456.232 167.159 455.541 166.559Z" fill="#29190F"/>
<path d="M444.87 166.768C444.246 166.223 443.55 165.849 442.754 165.623C441.87 165.376 441.56 166.752 442.439 167C443.003 167.159 443.478 167.424 443.914 167.809C444.6 168.409 445.561 167.369 444.87 166.768Z" fill="#29190F"/>
<path d="M455.248 142.673C451.214 142.106 447.655 145.195 448.125 148.877C448.926 155.17 449.744 162.007 458.752 168.018C473.578 177.91 482.293 175.978 482.293 175.978C482.293 175.978 489.848 160.52 479.552 150.49C472.954 144.061 462.974 143.758 455.243 142.673H455.248Z" fill="#29190F"/>
<path d="M483.775 198.955L463.472 218.525L451.143 174.332L476.535 173.209L483.775 198.955Z" fill="#FF9D7C"/>
<path d="M475.109 197.788L514.539 196.049C514.539 196.049 511.521 180.206 499.099 173.358C486.67 166.509 485.449 156.017 485.449 156.017C485.449 156.017 470.733 176.413 475.115 197.788H475.109Z" fill="#29190F"/>
<path d="M485.206 180.883C481.84 184.775 476.828 185.969 474.01 183.553C471.197 181.136 471.644 176.022 475.01 172.13C478.375 168.238 483.388 167.043 486.206 169.46C489.024 171.877 488.571 176.991 485.206 180.883Z" fill="#FF9D7C"/>
<path d="M478.536 176.446C480.763 173.077 484.288 173.148 484.327 173.148L484.366 171.844C484.189 171.838 480.066 171.756 477.441 175.73L478.536 176.451V176.446Z" fill="#29190F"/>
<path d="M461.934 193.145L456.813 195.081L457.278 196.3L462.398 194.365L461.934 193.145Z" fill="#29190F"/>
<path d="M446.92 184.533C447.517 184.505 448.197 184.45 448.877 184.335C450.943 183.993 452.883 182.694 452.966 182.639L452.231 181.56C452.231 181.56 450.446 182.755 448.667 183.046C446.821 183.349 444.953 183.212 444.936 183.212L444.837 184.516C444.892 184.516 445.76 184.582 446.926 184.533H446.92Z" fill="#29190F"/>
<path d="M444.76 178.427L445.826 177.662C445.379 177.04 444.97 176.303 444.848 175.906C445.224 175.873 446.009 175.956 446.694 176.115L447.407 176.28L447.838 172.609L446.534 172.455L446.268 174.701C445.495 174.574 444.467 174.502 443.942 174.849C443.71 174.998 443.56 175.224 443.511 175.482C443.35 176.363 444.329 177.838 444.754 178.427H444.76Z" fill="#29190F"/>
<path d="M454.37 171.464C454.42 172.532 453.983 173.413 453.403 173.44C452.823 173.468 452.314 172.625 452.265 171.557C452.215 170.49 452.651 169.609 453.232 169.581C453.812 169.554 454.32 170.396 454.37 171.464Z" fill="#29190F"/>
<path d="M444.273 171.91C444.323 172.978 443.887 173.858 443.306 173.886C442.726 173.913 442.218 173.071 442.168 172.003C442.118 170.935 442.555 170.055 443.135 170.027C443.715 169.999 444.224 170.842 444.273 171.91Z" fill="#29190F"/>
<path d="M477.712 185.518C478.839 185.468 479.862 185.138 479.917 185.122L479.508 183.877C479.508 183.877 478.104 184.323 476.977 184.191C475.756 184.048 474.424 183.041 474.413 183.035L473.617 184.076C473.684 184.125 475.242 185.303 476.822 185.496C477.115 185.529 477.419 185.534 477.712 185.523V185.518Z" fill="#29190F"/>
</g>
<g clip-path="url(#clip3_4407_672)">
<rect x="152" y="117" width="212" height="147" fill="#E7EFF9"/>
<g clip-path="url(#clip4_4407_672)">
<path d="M275.666 155.921C275.439 162.85 279.341 168.463 284.385 168.463C289.429 168.463 293.701 162.845 293.932 155.921C294.159 148.992 290.257 143.379 285.213 143.379C280.169 143.379 275.897 148.997 275.666 155.921Z" fill="#A85758"/>
<path d="M290.763 157.333C296.11 155.113 298.649 148.97 296.435 143.612C294.22 138.254 288.089 135.709 282.742 137.928C277.394 140.148 274.855 146.291 277.07 151.649C279.285 157.008 285.415 159.552 290.763 157.333Z" fill="#A85758"/>
<path d="M247.663 166.058C247.244 178.766 257.183 189.074 269.87 189.074C282.558 189.074 293.176 178.771 293.601 166.058C294.02 153.35 284.081 143.042 271.393 143.042C258.706 143.042 248.088 153.344 247.663 166.058Z" fill="#FF9D7C"/>
<path d="M280.282 154.202C285.63 151.983 288.169 145.839 285.954 140.481C283.739 135.123 277.609 132.578 272.261 134.798C266.914 137.017 264.375 143.16 266.59 148.519C268.805 153.877 274.935 156.422 280.282 154.202Z" fill="#A85758"/>
<path d="M261.633 158.491C267.415 158.233 271.893 153.327 271.636 147.533C271.378 141.739 266.482 137.251 260.7 137.509C254.918 137.767 250.439 142.673 250.697 148.467C250.954 154.261 255.85 158.749 261.633 158.491Z" fill="#A85758"/>
<path d="M263.249 190.49L277.205 194.787C287.68 196.943 297.393 187.802 295.919 177.173L293.071 160.356L261.168 159.272L263.243 190.484L263.249 190.49Z" fill="#FF9D7C"/>
<path d="M278.017 162.779C277.283 163.038 276.648 163.431 276.085 163.979C275.29 164.753 276.543 165.925 277.332 165.156C277.674 164.825 278.072 164.581 278.519 164.421C279.556 164.056 279.06 162.408 278.017 162.779Z" fill="#29190F"/>
<path d="M288.573 162.109C287.839 162.369 287.205 162.762 286.642 163.309C285.847 164.083 287.1 165.256 287.889 164.487C288.231 164.155 288.628 163.912 289.075 163.752C290.113 163.387 289.616 161.739 288.573 162.109Z" fill="#29190F"/>
<path d="M257.68 175C257.68 175 269.843 166.815 266.394 157.608C262.945 148.4 247.354 152.421 244.126 158.515C240.202 165.93 250.086 175.984 250.086 175.984L257.68 175Z" fill="#A85758"/>
<path d="M282.414 171.919L272.056 210.945L246.399 204.243L251.399 184.556L251.736 183.239L254.473 172.461L282.414 171.919Z" fill="#FF9D7C"/>
<path d="M245.213 178.39C247.669 182.581 252.156 184.462 255.23 182.587C258.304 180.712 258.806 175.796 256.35 171.604C253.894 167.412 249.407 165.532 246.334 167.407C243.26 169.282 242.757 174.198 245.213 178.39Z" fill="#FF9D7C"/>
<path d="M252.272 175.171L253.431 174.651C251.687 170.493 247.802 169.956 247.636 169.934L247.438 171.178L247.537 170.553L247.438 171.173C247.575 171.189 250.804 171.659 252.272 175.16V175.171Z" fill="#29190F"/>
<path d="M284.633 182.665C285.814 182.665 286.697 182.56 286.752 182.554L286.636 181.232C286.636 181.232 284.721 181.459 282.851 181.232C281.035 181.011 279.236 179.889 279.219 179.877L278.485 181.011C278.568 181.061 280.549 182.3 282.652 182.554C283.342 182.637 284.032 182.665 284.639 182.665H284.633Z" fill="#29190F"/>
<path d="M286.753 176.349C287.178 175.724 288.154 174.187 287.983 173.291C287.934 173.031 287.774 172.81 287.542 172.666C287.001 172.34 285.969 172.456 285.18 172.622L284.887 170.349L283.568 170.565L284.048 174.281L284.771 174.082C285.467 173.888 286.256 173.772 286.642 173.789C286.521 174.187 286.118 174.967 285.665 175.619L286.753 176.349Z" fill="#29190F"/>
<path d="M276.929 169.691C276.89 170.78 277.343 171.66 277.933 171.66C278.524 171.66 279.032 170.78 279.065 169.691C279.103 168.601 278.651 167.722 278.06 167.722C277.47 167.722 276.962 168.601 276.929 169.691Z" fill="#29190F"/>
<path d="M287.171 169.691C287.133 170.78 287.585 171.66 288.176 171.66C288.766 171.66 289.274 170.78 289.307 169.691C289.346 168.601 288.893 167.722 288.303 167.722C287.712 167.722 287.204 168.601 287.171 169.691Z" fill="#29190F"/>
<path d="M254.148 184.401C253.574 184.567 252.945 184.606 252.41 184.606C252.012 184.606 251.665 184.578 251.405 184.556L251.742 183.24C252.31 183.29 253.155 183.306 253.845 183.118L254.154 184.401H254.148Z" fill="#29190F"/>
<path d="M206.174 218.173C198.453 231.285 192.653 251.066 189 269H207.797L206.174 218.173Z" fill="#8071D9"/>
<path d="M306.553 218.173L306.001 269H327C318.683 243.164 306.553 218.173 306.553 218.173Z" fill="#8071D9"/>
<path d="M309.208 227.901C308.976 218.527 302.552 210.387 293.347 207.799L257.829 198.575L219.695 207.915C210.175 210.376 203.503 218.748 203.376 228.382L203.459 269H309.395L309.202 227.906L309.208 227.901Z" fill="#8071D9"/>
<path d="M237.206 203.624L258.259 197.911L279.313 204.155C279.313 204.155 264.22 214.844 237.2 203.624H237.206Z" fill="#FF9D7C"/>
<path d="M309.478 242.627L307.458 242.694L308.297 269H310.317L309.478 242.627Z" fill="#6055A3"/>
<path d="M209.596 242.677L207.576 242.644L207.112 269H209.132L209.596 242.677Z" fill="#6055A3"/>
<path d="M192.885 252.499C192.51 253.881 192.151 255.269 191.804 256.652L194.745 268.995H196.82L192.891 252.499H192.885Z" fill="#6055A3"/>
<path d="M323.143 257.752C322.685 256.48 322.221 255.23 321.746 253.986L319.125 268.994H321.178L323.143 257.752Z" fill="#6055A3"/>
<path d="M287.939 206.394C281.786 209.071 269.568 213.655 258.254 213.655C246.174 213.655 236.036 207.843 231.748 204.956L234.441 204.298C239.165 207.207 248.094 211.681 258.254 211.681C267.802 211.681 278.27 208.175 284.744 205.565L287.939 206.394Z" fill="#6055A3"/>
</g>
</g>
<g clip-path="url(#clip5_4407_672)">
<rect x="364" y="264" width="212" height="147" fill="#E7EFF9"/>
<g clip-path="url(#clip6_4407_672)">
<path d="M487.648 317.008C490.152 305.378 482.738 293.923 471.089 291.424C459.44 288.924 447.967 296.326 445.463 307.956C442.959 319.586 450.373 331.041 462.022 333.541C473.671 336.04 485.145 328.639 487.648 317.008Z" fill="#CF6C4F"/>
<path d="M472.727 335.348L459.482 339.367C449.576 341.382 440.737 332.829 442.449 322.883L445.647 307.146L475.647 306.132L472.727 335.342V335.348Z" fill="#CF6C4F"/>
<path d="M459.624 307.961C460.366 308.397 461.092 308.855 461.659 309.512C462.17 310.106 461.313 310.967 460.797 310.372C460.293 309.789 459.663 309.399 459.006 309.008C458.331 308.606 458.943 307.553 459.624 307.955V307.961Z" fill="#29190F"/>
<path d="M449.549 307.74C450.291 308.176 451.017 308.634 451.584 309.291C452.094 309.886 451.238 310.746 450.722 310.152C450.218 309.569 449.588 309.178 448.93 308.787C448.256 308.385 448.868 307.332 449.549 307.734V307.74Z" fill="#29190F"/>
<path d="M450.898 315.88C450.898 316.899 450.45 317.726 449.894 317.726C449.339 317.726 448.891 316.899 448.891 315.88H450.898Z" fill="#29190F"/>
<path d="M451.437 315.965C451.425 315.71 451.397 315.484 451.369 315.24V315.229C450.994 312.235 449.469 310.055 447.575 310.055C446.572 310.055 445.699 310.672 444.99 311.663V311.691C444.842 311.918 444.695 312.161 444.576 312.427C444.015 313.565 443.691 315.048 443.691 316.667V316.786C443.72 320.437 445.404 323.285 447.575 323.285C447.672 323.285 447.762 323.273 447.87 323.256C448.913 323.137 449.838 322.322 450.484 321.065C450.875 320.341 451.153 319.458 451.301 318.484C451.408 317.907 451.448 317.295 451.448 316.667C451.448 316.441 451.448 316.197 451.437 315.971V315.965ZM450.098 320.086C449.52 321.558 448.596 322.532 447.581 322.532C447.541 322.532 447.502 322.532 447.462 322.52C445.812 322.413 444.434 319.78 444.434 316.661C444.434 315.456 444.65 314.323 444.996 313.372V313.361L445.007 313.35C445.568 311.838 446.521 310.808 447.581 310.808C449.135 310.808 450.461 313.067 450.677 315.891C450.688 316.146 450.705 316.412 450.705 316.667C450.705 316.775 450.705 316.882 450.694 316.99V317.018C450.682 317.595 450.626 318.139 450.507 318.665C450.41 319.175 450.28 319.656 450.104 320.097L450.098 320.086Z" fill="#F5D9D9"/>
<path d="M458.552 303.776C465.362 302.672 469.986 296.266 468.88 289.468C467.775 282.669 461.359 278.053 454.549 279.156C447.74 280.26 443.116 286.666 444.221 293.464C445.326 300.262 451.743 304.879 458.552 303.776Z" fill="#29190F"/>
<path d="M460.287 294.386C460.287 294.386 464.716 306.659 471.372 312.484C478.029 318.309 482.338 319.701 482.338 319.701L488.127 316.599C488.127 316.599 493.735 298.569 477.694 291.471C461.654 284.372 458.785 290.384 460.293 294.386H460.287Z" fill="#29190F"/>
<path d="M485.121 349.381L470.646 353.825C468.599 354.453 466.399 353.366 465.906 351.492L457.265 318.473H480.789L487.491 345.616C487.888 347.224 486.868 348.843 485.121 349.381Z" fill="#CF6C4F"/>
<path d="M475.04 323.121H479.979V313.282H475.04V323.121Z" fill="#29190F"/>
<path d="M462.195 316.301L462.125 317.028L480.581 318.799L480.651 318.072L462.195 316.301Z" fill="#F5D9D9"/>
<path d="M489.454 326.161C486.086 329.727 481.266 330.655 478.692 328.232C476.118 325.81 476.758 320.953 480.126 317.386C483.494 313.82 488.314 312.892 490.888 315.314C493.462 317.737 492.822 322.594 489.454 326.161Z" fill="#CF6C4F"/>
<path d="M483.296 321.649L482.287 320.918C484.952 317.245 488.87 317.494 489.04 317.505L488.944 318.75C488.808 318.739 485.536 318.558 483.296 321.649Z" fill="#29190F"/>
<path d="M462.81 339.667L462.544 338.478L466.428 337.205L466.819 338.388L462.81 339.667Z" fill="#29190F"/>
<path d="M452.882 328.029C451.776 328.029 450.948 327.932 450.897 327.927L451.045 326.687C451.045 326.687 452.837 326.896 454.606 326.687C456.318 326.483 458.042 325.43 458.059 325.419L458.716 326.478C458.637 326.528 456.738 327.683 454.759 327.921C454.107 328 453.46 328.023 452.888 328.023L452.882 328.029Z" fill="#29190F"/>
<path d="M451.09 322.119C450.71 321.536 449.843 320.092 450.03 319.26C450.087 319.017 450.24 318.807 450.467 318.677C450.983 318.371 451.952 318.484 452.684 318.637L453.029 316.509L454.26 316.707L453.693 320.188L453.024 320.002C452.377 319.82 451.635 319.707 451.272 319.724C451.374 320.098 451.731 320.822 452.134 321.439L451.09 322.124V322.119Z" fill="#29190F"/>
<path d="M460.526 315.88C460.526 316.899 460.078 317.726 459.522 317.726C458.966 317.726 458.519 316.899 458.519 315.88H460.526Z" fill="#29190F"/>
<path d="M482.128 330.264C481.845 330.264 481.561 330.247 481.283 330.202L481.487 328.974C482.559 329.149 483.897 328.787 483.908 328.781L484.243 329.981C484.192 329.998 483.205 330.264 482.134 330.264H482.128Z" fill="#29190F"/>
<path d="M458.433 310.038C456.369 310.038 454.708 312.353 454.373 315.484V315.495C454.345 315.733 454.334 315.965 454.322 316.22V316.661C454.322 320.38 456.12 323.296 458.433 323.296H458.529C460.389 323.228 461.931 321.247 462.402 318.478C462.481 318.026 462.538 317.556 462.538 317.063C462.549 316.944 462.549 316.808 462.549 316.661V316.339C462.442 312.778 460.673 310.038 458.439 310.038H458.433ZM458.433 322.52C458.393 322.52 458.365 322.52 458.325 322.509H458.314C456.556 322.401 455.088 319.769 455.088 316.667C455.088 313.565 456.63 310.819 458.439 310.819C460.247 310.819 461.773 313.497 461.773 316.667C461.773 317.295 461.722 317.912 461.614 318.484C461.16 320.799 459.885 322.526 458.439 322.526L458.433 322.52Z" fill="#F5D9D9"/>
<path d="M451.116 315.214L451.055 315.941L454.671 316.246L454.732 315.519L451.116 315.214Z" fill="#F5D9D9"/>
<path d="M525.798 366.924C525.209 358.705 518.626 351.702 509.735 349.664L474.525 342.011L441.713 349.568C433.1 351.708 426.761 358.529 426.097 366.511L422.758 420H528.764L525.804 366.924H525.798Z" fill="#FFCE8A"/>
<path d="M493.485 346.132L474.128 341.479L454.742 346.568C454.742 346.568 468.56 355.432 493.485 346.132Z" fill="#CF6C4F"/>
<path d="M579 408.826V409.613C579 413.066 577.31 416.128 574.714 417.996H574.702C572.99 419.253 570.886 419.989 568.607 419.989H536.402L528.339 412.341L528.288 412.29L525.714 409.856L505.126 390.315C497.636 383.188 497.369 371.351 504.508 363.884C509.435 358.722 516.63 356.984 523.06 358.778C525.94 359.565 528.673 361.054 530.975 363.262L566.532 396.995L579.006 408.831L579 408.826Z" fill="#CF6C4F"/>
<path d="M568.306 395.047L525.974 356.344C516.976 348.119 503 348.73 494.761 357.714C486.523 366.698 487.135 380.652 496.133 388.877L530.17 419.994H545.422L568.306 395.041V395.047Z" fill="#FFCE8A"/>
<path d="M525.09 398.54H527.534L528.628 418.596H526.19L525.09 398.54Z" fill="#F0A77E"/>
<path d="M444.514 390.315L423.926 409.867L423.365 410.399L421.358 412.296L413.255 419.989H372.8C371.19 419.989 369.676 419.627 368.326 418.97C366.529 418.126 365.032 416.791 364 415.115L383.102 396.978L418.659 363.245C421.618 360.437 425.247 358.778 429.012 358.269C429.868 358.133 430.724 358.082 431.586 358.082C436.53 358.082 441.458 360.024 445.143 363.873C452.282 371.334 452.004 383.171 444.514 390.303V390.315Z" fill="#CF6C4F"/>
<path d="M453.506 388.882C462.504 380.657 463.122 366.703 454.878 357.72C446.64 348.736 432.663 348.119 423.665 356.35L381.327 395.047L404.211 420H419.463L453.5 388.882H453.506Z" fill="#FFCE8A"/>
<path d="M424.538 398.54H422.1L421 418.596H423.444L424.538 398.54Z" fill="#F0A77E"/>
</g>
</g>
<g clip-path="url(#clip7_4407_672)">
<path d="M300.956 383.212C301.881 367.032 289.116 353.399 273.037 353.399H225.177C210.816 353.399 198.782 364.357 197.352 378.76C196.056 391.796 194.942 405.177 194.006 418.006H298.967L300.956 383.217V383.212Z" fill="#F2507E"/>
<path d="M279.032 340.895C279.032 340.895 277.137 350.947 280.855 356.231C284.572 361.514 284.196 377.861 284.196 377.861C284.196 377.861 291.731 374.024 292.274 366.602C292.817 359.18 298.74 357.761 298.74 357.761C298.74 357.761 295.537 347.971 295.244 337.812C294.95 327.653 302.452 292.887 282.057 292.228C261.662 291.569 279.032 340.9 279.032 340.9V340.895Z" fill="#29190F"/>
<path d="M271.646 352.612H236.485C236.485 352.612 247.456 368.188 261.418 368.523C275.38 368.858 271.646 352.612 271.646 352.612Z" fill="#FF9D7C"/>
<path d="M276.283 337.042C288.123 332.362 293.958 318.894 289.315 306.96C284.673 295.025 271.312 289.144 259.472 293.824C247.632 298.503 241.798 311.971 246.44 323.905C251.082 335.84 264.443 341.721 276.283 337.042Z" fill="#FF9D7C"/>
<path d="M273.879 340.035C273.879 340.035 269.43 349.987 271.646 359.828C273.862 369.674 274.915 389.707 274.915 389.707L281.06 382.435C281.06 382.435 283.619 369.785 280.555 359.565C277.497 349.345 280.988 340.895 280.988 340.895L273.873 340.035H273.879Z" fill="#29190F"/>
<path d="M259.185 339.409L272.898 344.966C283.242 348.06 293.437 339.7 292.545 328.865L290.611 311.669L258.797 307.776L259.185 339.415V339.409Z" fill="#FF9D7C"/>
<path d="M275.391 313.194C274.682 313.428 274.045 313.797 273.48 314.288C272.826 314.852 273.685 315.88 274.333 315.316C274.821 314.897 275.347 314.607 275.962 314.406C276.776 314.138 276.2 312.926 275.391 313.194Z" fill="#29190F"/>
<path d="M285.946 313.445C285.237 313.68 284.6 314.048 284.034 314.54C283.381 315.104 284.239 316.132 284.888 315.567C285.375 315.149 285.902 314.858 286.517 314.657C287.331 314.389 286.755 313.177 285.946 313.445Z" fill="#29190F"/>
<path d="M283.674 294.948C283.674 294.948 275.147 308.017 267.529 313.652C259.91 319.281 250.419 321.716 250.419 321.716L244.552 317.846C244.552 317.846 240.263 297.964 257.988 291.843C275.707 285.722 285.646 290.798 283.674 294.953V294.948Z" fill="#29190F"/>
<path d="M241.101 354.539L269.74 357.058L280.034 322.995L251.389 320.477L241.101 354.539Z" fill="#FF9D7C"/>
<path d="M252.182 316.366C252.182 316.366 250.397 330.322 247.439 338.65C244.48 346.977 241.272 367.646 242.109 374.454L242.945 381.262C242.945 381.262 231.731 379.52 228.484 371.472C225.243 363.419 216.672 357.074 216.672 357.074C216.672 357.074 231.072 349.613 235.443 336.175C239.815 322.738 239.998 296.411 257.284 292.334L252.182 316.371V316.366Z" fill="#29190F"/>
<path d="M242.253 327.983C245.505 332.127 250.541 333.579 253.505 331.216C256.47 328.854 256.237 323.582 252.985 319.438C249.732 315.294 244.696 313.842 241.732 316.204C238.767 318.566 239 323.839 242.253 327.983Z" fill="#FF9D7C"/>
<path d="M249.222 323.71L250.364 323.017C247.871 318.823 243.682 318.723 243.499 318.723L243.482 320.069C243.626 320.069 247.123 320.18 249.222 323.71Z" fill="#29190F"/>
<path d="M272.499 346.061L273.025 344.821L266.958 342.308L266.432 343.542L272.499 346.061Z" fill="#29190F"/>
<path d="M280.971 333.406C282.151 333.512 283.037 333.484 283.093 333.478L283.048 332.138C283.048 332.138 281.126 332.199 279.264 331.803C277.463 331.423 275.724 330.133 275.707 330.122L274.909 331.199C274.987 331.261 276.898 332.679 278.987 333.121C279.674 333.266 280.361 333.355 280.965 333.406H280.971Z" fill="#29190F"/>
<path d="M283.425 327.229C283.885 326.637 284.943 325.168 284.816 324.258C284.783 323.995 284.633 323.755 284.406 323.593C283.885 323.213 282.844 323.247 282.051 323.342L281.88 321.024L280.55 321.124L280.832 324.911L281.564 324.771C282.267 324.637 283.06 324.593 283.448 324.637C283.309 325.028 282.86 325.777 282.373 326.397L283.42 327.229H283.425Z" fill="#29190F"/>
<path d="M273.973 319.655C273.879 320.75 274.277 321.677 274.87 321.727C275.458 321.778 276.012 320.934 276.106 319.84C276.2 318.745 275.801 317.818 275.208 317.768C274.621 317.717 274.067 318.561 273.973 319.655Z" fill="#29190F"/>
<path d="M284.212 320.554C284.118 321.649 284.517 322.576 285.11 322.626C285.702 322.677 286.251 321.833 286.345 320.739C286.439 319.644 286.04 318.717 285.448 318.667C284.86 318.616 284.306 319.46 284.212 320.554Z" fill="#29190F"/>
<path d="M252.974 313.155C252.974 313.155 252.425 325.391 248.624 336.315C241.355 357.203 249.001 383.357 249.001 383.357L262.226 388.986C262.226 388.986 254.94 362.676 259.661 347.625C268.127 320.633 266.57 308.731 266.57 308.731L252.968 313.16L252.974 313.155Z" fill="#29190F"/>
</g>
</g>
<circle cx="323.047" cy="445" r="12.5" fill="white" stroke="#D9D9D9"/>
<path d="M326.086 444.682C326.086 444.462 325.917 444.294 325.697 444.294C325.477 444.294 325.309 444.462 325.309 444.682C325.309 446.196 324.08 447.426 322.566 447.426C321.052 447.426 319.822 446.196 319.822 444.682C319.822 444.462 319.654 444.294 319.434 444.294C319.214 444.294 319.046 444.462 319.046 444.682C319.046 446.481 320.392 447.995 322.178 448.189V449.224H320.767C320.547 449.224 320.379 449.393 320.379 449.613C320.379 449.833 320.547 450.001 320.767 450.001H324.365C324.585 450.001 324.753 449.833 324.753 449.613C324.753 449.393 324.585 449.224 324.365 449.224H322.954V448.189C324.74 447.995 326.086 446.481 326.086 444.682Z" fill="#5F6368"/>
<path d="M322.566 439C321.376 439 320.405 439.971 320.405 441.161V444.668C320.405 445.872 321.376 446.829 322.566 446.842C323.757 446.842 324.728 445.872 324.728 444.681V441.161C324.728 439.971 323.757 439 322.566 439Z" fill="#5F6368"/>
<circle cx="356.094" cy="445" r="12.5" fill="white" stroke="#D9D9D9"/>
<path d="M360.699 442.019C360.581 441.956 360.448 441.93 360.318 441.947C360.187 441.963 360.064 442.021 359.961 442.112L358.771 443.167V442.941C358.798 442.681 358.772 442.417 358.694 442.169C358.616 441.921 358.488 441.696 358.321 441.51C358.153 441.324 357.95 441.183 357.726 441.097C357.502 441.01 357.264 440.981 357.028 441.012H352.847C352.611 440.981 352.373 441.01 352.149 441.097C351.925 441.183 351.722 441.324 351.554 441.51C351.387 441.696 351.259 441.921 351.181 442.169C351.103 442.417 351.077 442.681 351.104 442.941V447.059C351.077 447.319 351.103 447.583 351.181 447.831C351.259 448.079 351.387 448.304 351.554 448.49C351.722 448.676 351.925 448.817 352.149 448.903C352.373 448.99 352.611 449.019 352.847 448.988H357.028C357.264 449.019 357.502 448.99 357.726 448.903C357.95 448.817 358.153 448.676 358.321 448.49C358.488 448.304 358.616 448.079 358.694 447.831C358.772 447.583 358.798 447.319 358.771 447.059V446.833L359.961 447.888C360.084 447.998 360.237 448.057 360.395 448.057C360.5 448.057 360.604 448.031 360.699 447.981C360.817 447.918 360.918 447.819 360.988 447.696C361.058 447.573 361.094 447.43 361.094 447.284V442.716C361.094 442.57 361.058 442.427 360.988 442.304C360.918 442.181 360.817 442.082 360.699 442.019ZM358.074 447.059C358.074 447.87 357.761 448.216 357.028 448.216H352.847C352.114 448.216 351.801 447.87 351.801 447.059V442.941C351.801 442.13 352.114 441.784 352.847 441.784H357.028C357.761 441.784 358.074 442.13 358.074 442.941V447.059ZM360.397 447.285L358.771 445.844V444.156L360.397 442.715V447.285Z" fill="#5F6368"/>
<rect x="377.094" y="432" width="38" height="26" rx="13" fill="#EA4335"/>
<path d="M401.467 447.719C400.947 447.2 400.356 446.771 399.713 446.447C399.395 446.291 399.178 445.926 399.182 445.633L398.948 443.959C397.251 443.443 395.889 443.443 394.208 443.958L393.978 445.586C393.978 445.949 393.778 446.279 393.452 446.45C392.805 446.775 392.214 447.204 391.694 447.723C391.319 448.099 390.708 448.099 390.333 447.723L388.775 446.165C388.399 445.79 388.399 445.179 388.775 444.804C393.078 440.501 400.079 440.501 404.382 444.804C404.757 445.179 404.757 445.79 404.382 446.165L402.828 447.719C402.453 448.094 401.842 448.094 401.467 447.719Z" fill="white"/>
</g>
<rect x="122.138" y="54.0039" width="480.971" height="422.031" rx="7.14225" transform="rotate(-0.103089 122.138 54.0039)" stroke="#C7DEFF" stroke-width="2.27269"/>
<g filter="url(#filter0_d_4407_672)">
<rect x="536.326" y="251.892" width="125.981" height="169.08" rx="9.09078" fill="white"/>
<circle cx="574.453" cy="295.543" r="16.0239" fill="#407BFF"/>
<path fill-rule="evenodd" clip-rule="evenodd" d="M575.73 299.664C575.73 299.933 575.708 300.198 575.666 300.455H578.737C579.172 300.455 579.528 300.099 579.528 299.664V298.081L582.694 299.664V291.75L579.528 293.333V291.75C579.528 291.315 579.172 290.958 578.737 290.958H567.658C567.222 290.958 566.866 291.315 566.866 291.75V296.762C567.759 295.546 569.199 294.757 570.823 294.757C573.533 294.757 575.73 296.954 575.73 299.664ZM570.823 303.621C573.008 303.621 574.78 301.849 574.78 299.664C574.78 297.478 573.008 295.707 570.823 295.707C568.638 295.707 566.866 297.478 566.866 299.664C566.866 301.849 568.638 303.621 570.823 303.621ZM570.348 300.139V302.038H571.298V300.139H573.197V299.189H571.298V297.29H570.348V299.189H568.449V300.139H570.348Z" fill="white"/>
<rect x="598.211" y="286.149" width="43.0989" height="4.73614" rx="1.89391" fill="#D9E8F5"/>
<rect x="598.211" y="293.728" width="43.0989" height="4.73614" rx="1.89391" fill="#D9E8F5"/>
<rect x="598.211" y="301.305" width="25.4173" height="4.73614" rx="1.89391" fill="#D9E8F5"/>
<circle cx="574.453" cy="336.432" r="16.0239" fill="#FF4B3C"/>
<path d="M568.88 341.681C568.702 341.681 568.558 341.826 568.558 342.003C568.558 342.181 568.702 342.326 568.88 342.326C569.058 342.326 569.202 342.182 569.202 342.003C569.202 341.825 569.058 341.681 568.88 341.681Z" fill="white"/>
<path d="M577.26 341.681H574.682C574.504 341.681 574.359 341.826 574.359 342.003C574.359 342.181 574.504 342.326 574.682 342.326H577.26C577.438 342.326 577.583 342.181 577.583 342.003C577.583 341.826 577.438 341.681 577.26 341.681Z" fill="white"/>
<path d="M579.418 332.026C578.97 329.794 576.981 328.144 574.683 328.144C572.017 328.144 569.848 330.311 569.848 332.978C569.848 333.087 569.853 333.198 569.862 333.317C568.407 333.471 567.27 334.706 567.27 336.202C567.27 336.46 567.311 336.721 567.4 337.02C567.451 337.191 567.63 337.29 567.8 337.238C567.971 337.188 568.068 337.009 568.018 336.838C567.947 336.599 567.914 336.396 567.914 336.202C567.914 334.957 568.926 333.945 570.15 333.944C570.256 333.96 570.395 333.921 570.466 333.839C570.528 333.769 570.555 333.675 570.542 333.582C570.508 333.351 570.493 333.159 570.493 332.978C570.493 330.669 572.373 328.788 574.683 328.788C576.753 328.788 578.534 330.334 578.826 332.384C578.849 332.546 579.037 332.659 579.195 332.656C580.795 332.656 582.096 333.958 582.096 335.557C582.096 336.933 581.118 338.129 579.77 338.4C579.595 338.435 579.482 338.605 579.517 338.78C579.548 338.932 579.683 339.038 579.833 339.038C579.854 339.038 579.875 339.036 579.897 339.032C581.545 338.7 582.741 337.239 582.741 335.557C582.741 333.693 581.296 332.161 579.418 332.026Z" fill="white"/>
<path d="M568.88 339.103C568.702 339.103 568.558 339.247 568.558 339.425C568.558 339.603 568.702 339.748 568.88 339.748C569.058 339.748 569.202 339.604 569.202 339.425C569.202 339.247 569.058 339.103 568.88 339.103Z" fill="white"/>
<path d="M577.906 337.813H568.236C567.703 337.813 567.27 338.247 567.27 338.78V340.07C567.27 340.318 567.366 340.543 567.521 340.714C567.366 340.886 567.27 341.111 567.27 341.359V342.648C567.27 343.182 567.703 343.615 568.236 343.615H577.906C578.439 343.615 578.873 343.181 578.873 342.648V341.359C578.873 341.111 578.776 340.886 578.622 340.714C578.776 340.543 578.873 340.318 578.873 340.07V338.78C578.873 338.247 578.439 337.813 577.906 337.813ZM578.228 342.648C578.228 342.826 578.084 342.971 577.906 342.971H568.236C568.059 342.971 567.914 342.826 567.914 342.648V341.359C567.914 341.181 568.059 341.037 568.236 341.037H577.906C578.084 341.037 578.228 341.181 578.228 341.359V342.648ZM578.228 340.07C578.228 340.248 578.084 340.392 577.906 340.392H568.236C568.059 340.392 567.914 340.248 567.914 340.07V338.78C567.914 338.603 568.059 338.458 568.236 338.458H577.906C578.084 338.458 578.228 338.603 578.228 338.78V340.07Z" fill="white"/>
<path d="M577.26 339.103H574.682C574.504 339.103 574.359 339.247 574.359 339.425C574.359 339.603 574.504 339.748 574.682 339.748H577.26C577.438 339.748 577.583 339.603 577.583 339.425C577.583 339.247 577.438 339.103 577.26 339.103Z" fill="white"/>
<circle cx="574.453" cy="377.32" r="16.0239" fill="#FDB817"/>
<path d="M581.42 371.643L575.247 369.079C575.092 369.015 574.918 369.015 574.764 369.079L568.591 371.643C568.355 371.74 568.202 371.97 568.202 372.224V375.34C568.202 379.63 570.795 383.49 574.767 385.111C574.92 385.173 575.091 385.173 575.243 385.111C579.216 383.49 581.809 379.63 581.809 375.34V372.224C581.809 371.97 581.655 371.74 581.42 371.643ZM580.549 375.34C580.549 378.987 578.407 382.345 575.005 383.843C571.695 382.385 569.462 379.086 569.462 375.34V372.645L575.005 370.343L580.549 372.645V375.34ZM574.309 377.463L577.017 374.756C577.263 374.51 577.662 374.51 577.908 374.756C578.154 375.002 578.154 375.401 577.908 375.647L574.755 378.8C574.509 379.046 574.11 379.046 573.864 378.8L572.103 377.039C571.857 376.793 571.857 376.394 572.103 376.148C572.349 375.902 572.748 375.902 572.994 376.148L574.309 377.463Z" fill="white"/>
<rect x="598.211" y="327.038" width="43.0989" height="4.73614" rx="1.89391" fill="#D9E8F5"/>
<rect x="598.211" y="334.617" width="43.0989" height="4.73614" rx="1.89391" fill="#D9E8F5"/>
<rect x="598.211" y="342.194" width="25.4173" height="4.73614" rx="1.89391" fill="#D9E8F5"/>
<rect x="598.211" y="367.927" width="43.0989" height="4.73614" rx="1.89391" fill="#D9E8F5"/>
<rect x="598.211" y="375.506" width="43.0989" height="4.73614" rx="1.89391" fill="#D9E8F5"/>
<rect x="598.211" y="383.082" width="25.4173" height="4.73614" rx="1.89391" fill="#D9E8F5"/>
</g>
<g filter="url(#filter1_d_4407_672)">
<rect x="552" y="122" width="112" height="116" rx="9.09078" fill="white"/>
<path fill-rule="evenodd" clip-rule="evenodd" d="M600.286 173.571H592.571C591.151 173.571 590 174.722 590 176.143V186.429C590 187.849 591.151 189 592.571 189H600.286C601.706 189 602.857 187.849 602.857 186.429V176.143C602.857 174.722 601.706 173.571 600.286 173.571ZM619.571 178.714H626V167.143C626 165.012 624.273 163.286 622.143 163.286H609.286C608.262 163.286 607.281 163.692 606.559 164.416C605.835 165.138 605.429 166.119 605.429 167.143V185.143C605.429 186.166 605.835 187.147 606.559 187.87C607.281 188.594 608.262 189 609.286 189H615.714V182.571C615.714 180.441 617.441 178.714 619.571 178.714ZM625.2 181.286H619.571C618.862 181.286 618.286 181.862 618.286 182.571V188.2C618.418 188.1 618.543 187.989 618.662 187.87L624.87 181.662C624.989 181.543 625.1 181.418 625.2 181.286ZM595.143 180V182.571C595.143 183.281 595.719 183.857 596.429 183.857C597.138 183.857 597.714 183.281 597.714 182.571V180C597.714 179.29 597.138 178.714 596.429 178.714C595.719 178.714 595.143 179.29 595.143 180ZM611.857 176.143H617C617.71 176.143 618.286 175.567 618.286 174.857C618.286 174.147 617.71 173.571 617 173.571H611.857C611.147 173.571 610.571 174.147 610.571 174.857C610.571 175.567 611.147 176.143 611.857 176.143ZM611.857 171H619.571C620.281 171 620.857 170.424 620.857 169.714C620.857 169.005 620.281 168.429 619.571 168.429H611.857C611.147 168.429 610.571 169.005 610.571 169.714C610.571 170.424 611.147 171 611.857 171ZM601.372 170.76L595.765 164.596C594.427 163.124 594.427 160.876 595.765 159.404L601.372 153.24C601.035 153.084 600.665 153 600.286 153H592.571C591.89 153 591.236 153.271 590.753 153.753C590.271 154.236 590 154.89 590 155.571V168.429C590 169.11 590.271 169.764 590.753 170.247C591.236 170.729 591.89 171 592.571 171H600.286C600.665 171 601.035 170.916 601.372 170.76ZM602.853 155.434L597.668 161.135C597.222 161.626 597.222 162.374 597.668 162.865L602.853 168.566C602.856 168.52 602.857 168.475 602.857 168.429C602.857 165.523 602.857 158.477 602.857 155.571C602.857 155.525 602.856 155.479 602.853 155.434ZM619.571 153H610.848C610.483 153 610.123 153.077 609.79 153.228L606.943 154.513C606.021 154.93 605.43 155.847 605.43 156.857C605.43 157.868 606.021 158.784 606.943 159.201L609.79 160.487C610.123 160.637 610.483 160.714 610.848 160.714H619.571V153ZM622.143 153V160.714H623.429C624.849 160.714 626 159.564 626 158.143V155.571C626 154.151 624.849 153 623.429 153H622.143Z" fill="#407BFF"/>
<path d="M577.525 216H572.219V202.776H577.497C579.844 202.776 581.383 204.077 581.383 206.075C581.383 207.477 580.348 208.733 579.028 208.953V209.026C580.824 209.228 582.034 210.501 582.034 212.261C582.034 214.589 580.338 216 577.525 216ZM574.272 204.453V208.403H576.572C578.35 208.403 579.33 207.67 579.33 206.359C579.33 205.131 578.487 204.453 577.003 204.453H574.272ZM574.272 214.323H577.103C578.955 214.323 579.935 213.562 579.935 212.133C579.935 210.703 578.927 209.97 576.984 209.97H574.272V214.323ZM583.564 216V206.359H585.452V208H585.498C585.819 206.872 586.68 206.203 587.817 206.203C588.101 206.203 588.348 206.249 588.495 206.277V208.119C588.339 208.055 587.991 208.009 587.606 208.009C586.332 208.009 585.544 208.861 585.544 210.226V216H583.564ZM592.894 214.598C594.277 214.598 595.359 213.645 595.359 212.389V211.629L592.985 211.775C591.803 211.858 591.134 212.38 591.134 213.205C591.134 214.048 591.83 214.598 592.894 214.598ZM592.344 216.165C590.456 216.165 589.136 214.992 589.136 213.26C589.136 211.574 590.428 210.538 592.719 210.41L595.359 210.254V209.512C595.359 208.439 594.635 207.798 593.425 207.798C592.28 207.798 591.565 208.348 591.391 209.209H589.521C589.631 207.468 591.116 206.185 593.498 206.185C595.835 206.185 597.329 207.422 597.329 209.356V216H595.432V214.415H595.386C594.827 215.487 593.608 216.165 592.344 216.165ZM599.254 216V206.359H601.141V207.972H601.187C601.71 206.872 602.736 206.194 604.221 206.194C606.347 206.194 607.566 207.551 607.566 209.759V216H605.577V210.144C605.577 208.696 604.899 207.899 603.524 207.899C602.131 207.899 601.233 208.888 601.233 210.382V216H599.254ZM613.101 216.165C610.663 216.165 609.05 214.222 609.05 211.18C609.05 208.137 610.663 206.203 613.082 206.203C614.466 206.203 615.566 206.9 616.107 207.963H616.143V202.776H618.132V216H616.208V214.36H616.171C615.603 215.459 614.503 216.165 613.101 216.165ZM613.623 207.871C612.056 207.871 611.076 209.154 611.076 211.18C611.076 213.214 612.056 214.488 613.623 214.488C615.144 214.488 616.162 213.196 616.162 211.18C616.162 209.182 615.144 207.871 613.623 207.871ZM620.231 216V206.359H622.21V216H620.231ZM621.22 204.948C620.588 204.948 620.075 204.444 620.075 203.821C620.075 203.188 620.588 202.684 621.22 202.684C621.862 202.684 622.375 203.188 622.375 203.821C622.375 204.444 621.862 204.948 621.22 204.948ZM624.235 216V206.359H626.123V207.972H626.169C626.691 206.872 627.718 206.194 629.203 206.194C631.329 206.194 632.547 207.551 632.547 209.759V216H630.559V210.144C630.559 208.696 629.881 207.899 628.506 207.899C627.113 207.899 626.215 208.888 626.215 210.382V216H624.235ZM638.568 214.396C640.117 214.396 641.134 213.141 641.134 211.152C641.134 209.173 640.117 207.871 638.568 207.871C637.047 207.871 636.057 209.145 636.057 211.152C636.057 213.168 637.047 214.396 638.568 214.396ZM638.587 219.629C636.314 219.629 634.628 218.419 634.38 216.751H636.369C636.653 217.558 637.533 218.089 638.66 218.089C640.209 218.089 641.125 217.21 641.125 215.89V214.305H641.089C640.548 215.349 639.412 216.037 638.037 216.037C635.618 216.037 634.032 214.149 634.032 211.143C634.032 208.11 635.608 206.203 638.083 206.203C639.448 206.203 640.566 206.891 641.153 208.009H641.189V206.359H643.114V215.826C643.114 218.126 641.336 219.629 638.587 219.629Z" fill="#0D305E"/>
</g>
<rect x="95" y="357" width="141.028" height="179.307" rx="6.54773" fill="#2B7AED"/>
<rect x="101.547" y="367.577" width="128.94" height="32.7386" rx="4.02937" fill="white"/>
<circle cx="120.687" cy="384.198" r="3.5257" fill="#81A6DC"/>
<circle cx="133.279" cy="384.198" r="3.5257" fill="#81A6DC"/>
<circle cx="145.87" cy="384.198" r="3.5257" fill="#81A6DC"/>
<path d="M165.01 367.577H226.458C228.683 367.577 230.487 369.381 230.487 371.606V396.286C230.487 398.511 228.683 400.315 226.458 400.315H165.01V367.577Z" fill="#044DB9"/>
<rect x="180.12" y="379.665" width="36.768" height="8.05874" rx="4.02937" fill="white" fill-opacity="0.5"/>
<rect x="101.547" y="408.374" width="128.94" height="32.7386" rx="4.02937" fill="white"/>
<circle cx="120.687" cy="424.995" r="3.5257" fill="#81A6DC"/>
<circle cx="133.279" cy="424.995" r="3.5257" fill="#81A6DC"/>
<circle cx="145.87" cy="424.995" r="3.5257" fill="#81A6DC"/>
<path d="M165.01 408.374H226.458C228.683 408.374 230.487 410.178 230.487 412.403V437.083C230.487 439.309 228.683 441.113 226.458 441.113H165.01V408.374Z" fill="#044DB9"/>
<rect x="180.12" y="420.462" width="36.768" height="8.05874" rx="4.02937" fill="white" fill-opacity="0.5"/>
<rect x="101.547" y="449.171" width="128.94" height="32.7386" rx="4.02937" fill="white"/>
<circle cx="120.687" cy="465.792" r="3.5257" fill="#81A6DC"/>
<circle cx="133.279" cy="465.792" r="3.5257" fill="#81A6DC"/>
<circle cx="145.87" cy="465.792" r="3.5257" fill="#81A6DC"/>
<path d="M165.01 449.171H226.458C228.683 449.171 230.487 450.975 230.487 453.2V477.88C230.487 480.106 228.683 481.91 226.458 481.91H165.01V449.171Z" fill="#044DB9"/>
<rect x="180.12" y="461.26" width="36.768" height="8.05874" rx="4.02937" fill="white" fill-opacity="0.5"/>
<rect x="101.547" y="489.969" width="128.94" height="32.7386" rx="4.02937" fill="white"/>
<circle cx="120.687" cy="506.59" r="3.5257" fill="#81A6DC"/>
<circle cx="133.279" cy="506.59" r="3.5257" fill="#81A6DC"/>
<circle cx="145.87" cy="506.59" r="3.5257" fill="#81A6DC"/>
<path d="M165.01 489.969H226.458C228.683 489.969 230.487 491.773 230.487 493.998V518.678C230.487 520.903 228.683 522.707 226.458 522.707H165.01V489.969Z" fill="#044DB9"/>
<rect x="180.12" y="502.057" width="36.768" height="8.05874" rx="4.02937" fill="white" fill-opacity="0.5"/>
<g filter="url(#filter2_d_4407_672)">
<rect x="27" y="111" width="203" height="44" rx="22" fill="white"/>
</g>
<path d="M62.1411 130.418V127.603C62.1411 124.308 59.5141 121.625 56.2789 121.625C53.0477 121.625 50.4166 124.308 50.4166 127.603V130.418C49.0641 130.533 48 131.698 48 133.105V136.46C48 140.773 51.4378 144.283 55.6668 144.283H56.8907C61.1198 144.283 64.5576 140.773 64.5576 136.46V133.105C64.5576 131.698 63.4937 130.533 62.1411 130.418ZM52.9541 127.603C53.1363 123.111 59.4216 123.112 59.6037 127.603V130.406H52.9541L52.9541 127.603ZM55.3513 137.657C53.9831 136.746 54.6506 134.521 56.2789 134.536C57.9072 134.522 58.5757 136.745 57.2066 137.657C57.1014 137.728 57.0351 137.855 57.0351 137.986V139.382C57.0098 140.397 55.5491 140.399 55.5228 139.382V137.986C55.5228 137.855 55.4565 137.728 55.3513 137.657Z" fill="#407BFF"/>
<path d="M73.7541 140V126.776H75.7153V131.972H75.7611C76.2926 130.845 77.3465 130.194 78.8128 130.194C80.9297 130.194 82.1944 131.605 82.1944 133.787V140H80.2058V134.172C80.2058 132.751 79.4909 131.899 78.098 131.899C76.6317 131.899 75.7336 132.907 75.7336 134.428V140H73.7541ZM84.6871 128.077H86.6758V130.359H88.5086V131.926H86.6758V137.242C86.6758 138.075 87.0423 138.451 87.8488 138.451C88.0504 138.451 88.3712 138.433 88.4995 138.405V139.973C88.2795 140.027 87.8396 140.064 87.3997 140.064C85.4477 140.064 84.6871 139.322 84.6871 137.461V131.926H83.285V130.359H84.6871V128.077ZM90.7172 128.077H92.7059V130.359H94.5387V131.926H92.7059V137.242C92.7059 138.075 93.0724 138.451 93.8789 138.451C94.0805 138.451 94.4013 138.433 94.5296 138.405V139.973C94.3096 140.027 93.8697 140.064 93.4299 140.064C91.4779 140.064 90.7172 139.322 90.7172 137.461V131.926H89.3151V130.359H90.7172V128.077ZM101.192 130.203C103.639 130.203 105.252 132.128 105.252 135.18C105.252 138.231 103.648 140.165 101.229 140.165C99.8449 140.165 98.7452 139.487 98.1953 138.415H98.1495V143.189H96.17V130.359H98.0853V132.018H98.122C98.6902 130.909 99.799 130.203 101.192 130.203ZM100.67 138.488C102.237 138.488 103.217 137.205 103.217 135.18C103.217 133.163 102.237 131.871 100.67 131.871C99.1575 131.871 98.1403 133.191 98.1403 135.18C98.1403 137.187 99.1484 138.488 100.67 138.488ZM106.608 133.09C106.608 131.367 108.129 130.185 110.384 130.185C112.528 130.185 114.031 131.386 114.095 133.099H112.235C112.143 132.229 111.438 131.688 110.329 131.688C109.257 131.688 108.542 132.21 108.542 132.971C108.542 133.567 109.018 133.97 110.017 134.217L111.639 134.593C113.582 135.06 114.315 135.794 114.315 137.214C114.315 138.974 112.675 140.183 110.311 140.183C108.029 140.183 106.516 139.001 106.361 137.232H108.322C108.478 138.158 109.192 138.671 110.402 138.671C111.594 138.671 112.327 138.176 112.327 137.397C112.327 136.783 111.96 136.444 110.952 136.188L109.229 135.766C107.488 135.345 106.608 134.437 106.608 133.09ZM117.34 140.101C116.671 140.101 116.139 139.569 116.139 138.9C116.139 138.231 116.671 137.7 117.34 137.7C118.009 137.7 118.54 138.231 118.54 138.9C118.54 139.569 118.009 140.101 117.34 140.101ZM117.34 133.42C116.671 133.42 116.139 132.898 116.139 132.22C116.139 131.551 116.671 131.019 117.34 131.019C118.009 131.019 118.54 131.551 118.54 132.22C118.54 132.898 118.009 133.42 117.34 133.42ZM121.564 142.823H119.805L124.497 126.776H126.256L121.564 142.823ZM128.016 142.823H126.256L130.949 126.776H132.708L128.016 142.823ZM137.061 138.598C138.445 138.598 139.526 137.645 139.526 136.389V135.629L137.153 135.775C135.971 135.858 135.302 136.38 135.302 137.205C135.302 138.048 135.998 138.598 137.061 138.598ZM136.511 140.165C134.623 140.165 133.304 138.992 133.304 137.26C133.304 135.574 134.596 134.538 136.887 134.41L139.526 134.254V133.512C139.526 132.439 138.802 131.798 137.593 131.798C136.447 131.798 135.732 132.348 135.558 133.209H133.689C133.799 131.468 135.283 130.185 137.666 130.185C140.003 130.185 141.497 131.422 141.497 133.356V140H139.6V138.415H139.554C138.995 139.487 137.776 140.165 136.511 140.165ZM151.697 133.677H149.809C149.607 132.65 148.837 131.835 147.545 131.835C146.015 131.835 145.007 133.108 145.007 135.18C145.007 137.297 146.024 138.525 147.563 138.525C148.782 138.525 149.58 137.856 149.809 136.738H151.715C151.504 138.79 149.864 140.183 147.545 140.183C144.787 140.183 142.99 138.295 142.99 135.18C142.99 132.119 144.787 130.185 147.527 130.185C150.01 130.185 151.522 131.78 151.697 133.677ZM153.117 140V130.359H155.005V131.981H155.051C155.481 130.909 156.489 130.194 157.791 130.194C159.129 130.194 160.1 130.882 160.485 132.082H160.531C161.026 130.909 162.162 130.194 163.537 130.194C165.443 130.194 166.689 131.459 166.689 133.374V140H164.701V133.851C164.701 132.604 164.032 131.89 162.859 131.89C161.686 131.89 160.87 132.76 160.87 133.979V140H158.927V133.704C158.927 132.595 158.221 131.89 157.103 131.89C155.93 131.89 155.096 132.806 155.096 134.043V140H153.117ZM172.637 131.78C171.253 131.78 170.282 132.834 170.181 134.291H175.001C174.956 132.815 174.021 131.78 172.637 131.78ZM174.992 137.168H176.871C176.596 138.928 174.928 140.183 172.719 140.183C169.888 140.183 168.174 138.268 168.174 135.225C168.174 132.201 169.915 130.185 172.637 130.185C175.313 130.185 176.981 132.073 176.981 134.996V135.674H170.172V135.794C170.172 137.471 171.18 138.58 172.765 138.58C173.892 138.58 174.726 138.011 174.992 137.168ZM180.005 140.101C179.336 140.101 178.805 139.569 178.805 138.9C178.805 138.231 179.336 137.7 180.005 137.7C180.674 137.7 181.206 138.231 181.206 138.9C181.206 139.569 180.674 140.101 180.005 140.101ZM187.08 140.183C184.321 140.183 182.507 138.286 182.507 135.18C182.507 132.082 184.331 130.185 187.08 130.185C189.829 130.185 191.653 132.082 191.653 135.18C191.653 138.286 189.838 140.183 187.08 140.183ZM187.08 138.552C188.638 138.552 189.637 137.324 189.637 135.18C189.637 133.044 188.629 131.816 187.08 131.816C185.531 131.816 184.523 133.044 184.523 135.18C184.523 137.324 185.531 138.552 187.08 138.552ZM193.183 140V130.359H195.071V132H195.117C195.438 130.872 196.299 130.203 197.436 130.203C197.72 130.203 197.967 130.249 198.114 130.277V132.119C197.958 132.055 197.61 132.009 197.225 132.009C195.951 132.009 195.163 132.861 195.163 134.226V140H193.183ZM203.026 138.396C204.575 138.396 205.592 137.141 205.592 135.152C205.592 133.173 204.575 131.871 203.026 131.871C201.505 131.871 200.515 133.145 200.515 135.152C200.515 137.168 201.505 138.396 203.026 138.396ZM203.044 143.629C200.771 143.629 199.085 142.419 198.838 140.751H200.826C201.11 141.558 201.99 142.089 203.117 142.089C204.666 142.089 205.583 141.21 205.583 139.89V138.305H205.546C205.005 139.349 203.869 140.037 202.494 140.037C200.075 140.037 198.489 138.149 198.489 135.143C198.489 132.11 200.066 130.203 202.54 130.203C203.906 130.203 205.024 130.891 205.61 132.009H205.647V130.359H207.571V139.826C207.571 142.126 205.793 143.629 203.044 143.629Z" fill="#B0B0B0"/>
<defs>
<filter id="filter0_d_4407_672" x="509.811" y="226.892" width="179.011" height="222.11" filterUnits="userSpaceOnUse" color-interpolation-filters="sRGB">
<feFlood flood-opacity="0" result="BackgroundImageFix"/>
<feColorMatrix in="SourceAlpha" type="matrix" values="0 0 0 0 0 0 0 0 0 0 0 0 0 0 0 0 0 0 127 0" result="hardAlpha"/>
<feOffset dy="1.51513"/>
<feGaussianBlur stdDeviation="13.2574"/>
<feComposite in2="hardAlpha" operator="out"/>
<feColorMatrix type="matrix" values="0 0 0 0 0 0 0 0 0 0 0 0 0 0 0 0 0 0 0.1 0"/>
<feBlend mode="normal" in2="BackgroundImageFix" result="effect1_dropShadow_4407_672"/>
<feBlend mode="normal" in="SourceGraphic" in2="effect1_dropShadow_4407_672" result="shape"/>
</filter>
<filter id="filter1_d_4407_672" x="525.485" y="97.0004" width="165.03" height="169.03" filterUnits="userSpaceOnUse" color-interpolation-filters="sRGB">
<feFlood flood-opacity="0" result="BackgroundImageFix"/>
<feColorMatrix in="SourceAlpha" type="matrix" values="0 0 0 0 0 0 0 0 0 0 0 0 0 0 0 0 0 0 127 0" result="hardAlpha"/>
<feOffset dy="1.51513"/>
<feGaussianBlur stdDeviation="13.2574"/>
<feComposite in2="hardAlpha" operator="out"/>
<feColorMatrix type="matrix" values="0 0 0 0 0 0 0 0 0 0 0 0 0 0 0 0 0 0 0.1 0"/>
<feBlend mode="normal" in2="BackgroundImageFix" result="effect1_dropShadow_4407_672"/>
<feBlend mode="normal" in="SourceGraphic" in2="effect1_dropShadow_4407_672" result="shape"/>
</filter>
<filter id="filter2_d_4407_672" x="0.485239" y="86.0004" width="256.03" height="97.0295" filterUnits="userSpaceOnUse" color-interpolation-filters="sRGB">
<feFlood flood-opacity="0" result="BackgroundImageFix"/>
<feColorMatrix in="SourceAlpha" type="matrix" values="0 0 0 0 0 0 0 0 0 0 0 0 0 0 0 0 0 0 127 0" result="hardAlpha"/>
<feOffset dy="1.51513"/>
<feGaussianBlur stdDeviation="13.2574"/>
<feComposite in2="hardAlpha" operator="out"/>
<feColorMatrix type="matrix" values="0 0 0 0 0 0 0 0 0 0 0 0 0 0 0 0 0 0 0.1 0"/>
<feBlend mode="normal" in2="BackgroundImageFix" result="effect1_dropShadow_4407_672"/>
<feBlend mode="normal" in="SourceGraphic" in2="effect1_dropShadow_4407_672" result="shape"/>
</filter>
<clipPath id="clip0_4407_672">
<rect x="121" y="52.8696" width="483.244" height="424.303" rx="8.2786" transform="rotate(-0.103089 121 52.8696)" fill="white"/>
</clipPath>
<clipPath id="clip1_4407_672">
<rect x="152" y="117" width="423" height="294" rx="8" fill="white"/>
</clipPath>
<clipPath id="clip2_4407_672">
<rect width="161" height="128" fill="white" transform="translate(388 138)"/>
</clipPath>
<clipPath id="clip3_4407_672">
<rect width="212" height="147" fill="white" transform="translate(152 117)"/>
</clipPath>
<clipPath id="clip4_4407_672">
<rect width="138" height="135" fill="white" transform="translate(189 134)"/>
</clipPath>
<clipPath id="clip5_4407_672">
<rect width="212" height="147" fill="white" transform="translate(364 264)"/>
</clipPath>
<clipPath id="clip6_4407_672">
<rect width="215" height="141" fill="white" transform="translate(364 279)"/>
</clipPath>
<clipPath id="clip7_4407_672">
<rect width="107" height="129" fill="white" transform="translate(194 289)"/>
</clipPath>
</defs>
</svg>
